<?xml version="1.0" encoding="UTF-8" standalone="no"?>
<!-- Created with Inkscape (http://www.inkscape.org/) -->

<svg
   width="38.099998mm"
   height="40.922226mm"
   viewBox="0 0 38.099998 40.922226"
   version="1.1"
   id="svg1"
   xml:space="preserve"
   inkscape:version="1.3 (0e150ed6c4, 2023-07-21)"
   sodipodi:docname="C-Banners.svg"
   inkscape:export-filename="C-Banners.png"
   inkscape:export-xdpi="96"
   inkscape:export-ydpi="96"
   xmlns:inkscape="http://www.inkscape.org/namespaces/inkscape"
   xmlns:sodipodi="http://sodipodi.sourceforge.net/DTD/sodipodi-0.dtd"
   xmlns="http://www.w3.org/2000/svg"
   xmlns:svg="http://www.w3.org/2000/svg"><sodipodi:namedview
     id="namedview1"
     pagecolor="#505050"
     bordercolor="#ffffff"
     borderopacity="1"
     inkscape:showpageshadow="0"
     inkscape:pageopacity="0"
     inkscape:pagecheckerboard="1"
     inkscape:deskcolor="#505050"
     inkscape:document-units="mm"
     showgrid="false"
     inkscape:zoom="8"
     inkscape:cx="90.5625"
     inkscape:cy="116.5625"
     inkscape:window-width="1920"
     inkscape:window-height="1009"
     inkscape:window-x="-8"
     inkscape:window-y="-8"
     inkscape:window-maximized="1"
     inkscape:current-layer="layer1" /><defs
     id="defs1" /><g
     inkscape:label="图层 1"
     inkscape:groupmode="layer"
     id="layer1"><path
       style="fill:#961e1e;fill-opacity:1"
       d="M 0.705555,40.922227 H 0 V 20.461107 0 H 19.05 38.1 v 20.461107 20.46112 h -0.705555 -0.705556 v -1.41112 -1.41111 h -0.705556 -0.705555 v 1.41111 1.41112 h -0.705556 -0.705555 v -1.41112 -1.41111 h -0.705556 -0.705555 v 1.41111 1.41112 H 31.75 31.044444 v -1.41112 -1.41111 h -0.705555 -0.705556 v 1.41111 1.41112 h -0.705555 -0.705556 v -1.41112 -1.41111 h -0.705555 -0.705556 v 1.41111 1.41112 H 26.105556 25.4 v -1.41112 -1.41111 h -0.705556 -0.705555 v 1.41111 1.41112 h -0.705556 -0.705555 v -1.41112 -1.41111 h -0.705556 -0.705555 v 1.41111 1.41112 h -0.705556 -0.705556 v -1.41112 -1.41111 H 19.05 18.344444 v 1.41111 1.41112 h -0.705555 -0.705556 v -1.41112 -1.41111 h -0.705555 -0.705556 v 1.41111 1.41112 h -0.705555 -0.705556 v -1.41112 -1.41111 H 13.405555 12.7 v 1.41111 1.41112 h -0.705556 -0.705555 v -1.41112 -1.41111 H 10.583333 9.877778 v 1.41111 1.41112 H 9.172222 8.466667 v -1.41112 -1.41111 H 7.761111 7.055555 v 1.41111 1.41112 H 6.35 5.644444 v -1.41112 -1.41111 H 4.938889 4.233333 v 1.41111 1.41112 H 3.527778 2.822222 v -1.41112 -1.41111 H 2.116666 1.411111 v 1.41111 1.41112 z M 19.05,36.688887 H 36.688889 V 19.049997 1.411111 H 19.05 1.411111 v 17.638886 17.63889 z"
       id="path1" /></g></svg>
